<svg xmlns="http://www.w3.org/2000/svg" version="1.1" xmlns:xlink="http://www.w3.org/1999/xlink" xmlns:svgjs="http://svgjs.com/svgjs" width="32" height="32" x="0" y="0" viewBox="0 0 512 512" style="enable-background:new 0 0 512 512" xml:space="preserve" class=""><g><path d="M512 256c0 141.387-114.613 256-256 256S0 397.387 0 256 114.613 0 256 0s256 114.613 256 256Zm0 0" style="stroke:none;fill-rule:nonzero;fill-opacity:1;" fill="#00efd1" data-original="#00efd1" class=""></path><path d="M512 256c0-97.855-54.914-182.879-135.602-225.96l-30.73 17.05 5.14 9.265-25.277 14.024c-11.46 6.293-13.62 7.633-35.73 2.293-17.621-4.242-35.403 4.898-50.68 13.277l-83.07 45.52c-12.34 6.77-17.48 21.16-11.461 32.16.41.73.86 1.45 1.351 2.121.512.719 1.07 1.39 1.668 2.027l34.149 33.922c-18.242 21.36-19.117 64.446 15.746 98.793l74.437 74.324-7.578 4.157-11.031-11.547c-2.547-3.192-6.133-5.66-10.121-6.715 0 0-54.691-14.39-58.621-15.441-6.14-1.61-13.63-4.489-20.77-.57-.61.331-19.425 10.773-45.164 25.058l-11.328-11.2-66.152 36.704c.289.449.586.89.879 1.336a239.08 239.08 0 0 0 3.894 5.75 269.688 269.688 0 0 0 3.82 5.328c.192.262.383.527.579.793.207.277.418.554.625.832a256.867 256.867 0 0 0 4.093 5.328c.352.445.715.883 1.07 1.324 1.2 1.5 2.415 2.985 3.65 4.457.66.785 1.32 1.57 1.987 2.352.598.683 1.204 1.355 1.801 2.039.906 1.027 1.801 2.062 2.723 3.078.812.894 1.644 1.77 2.469 2.656.875.938 1.742 1.887 2.629 2.813.32.332.644.66.964.988a260.297 260.297 0 0 0 4.008 4.035c.434.43.871.856 1.309 1.281.386.364.773.727 1.16 1.094.117.125.234.25.352.379C125.14 485.031 187.421 512 256 512c141.387 0 256-114.613 256-256Zm0 0" style="stroke:none;fill-rule:nonzero;fill-opacity:1;" fill="#00ad95" data-original="#00ad95"></path><path d="M311.516 189.598C275.136 179.96 256 217.102 256 217.102s-19.137-37.141-55.516-27.504C156.371 201.278 146.437 296.922 256 335c109.563-38.078 99.629-133.723 55.516-145.402Zm0 0" style="stroke:none;fill-rule:nonzero;fill-opacity:1;" fill="#ff4f19" data-original="#ff4f19" class=""></path><path d="M256 335V217.102s19.133-37.141 55.516-27.504C355.625 201.278 365.566 296.918 256 335Zm0 0" style="stroke:none;fill-rule:nonzero;fill-opacity:1;" fill="#ca1e00" data-original="#ca1e00"></path><path d="m450.512 89.559-105.762 58.73c-1.488.813-3.191 1.031-4.75.621l-79.91-20.738c-1.36-.363-2.86-.211-4.2.367-.18.082-.359.18-.538.262l-77.48 42.469c-11.532 6.32-25.263 3.761-31.93-5.52a20.965 20.965 0 0 1-1.352-2.121c-6.02-11-.88-25.39 11.46-32.16l83.071-45.52c15.277-8.379 33.059-17.52 50.68-13.277 22.11 5.34 24.27 4 35.73-2.293L387.22 36.16a256.41 256.41 0 0 1 53.12 42.211 273.664 273.664 0 0 1 10.173 11.188Zm0 0" style="stroke:none;fill-rule:nonzero;fill-opacity:1;" fill="#ffdba9" data-original="#ffdba9"></path><path d="M462.078 104.102C408.941 133.59 349.27 166.71 348.18 167.3c-7.14 3.918-14.63 1.039-20.77-.57-3.93-1.051-58.62-15.442-58.62-15.442-4.31-1.14-8.15-3.93-10.72-7.5-2.922-4.07-4.23-9.16-2.66-13.969.13-.449.29-.87.48-1.28 3.54-8.278 14.669-12.618 23.438-10.31 0 0 19.543 5.18 19.613 5.2l40.668 10.82 100.743-55.871a275.774 275.774 0 0 1 10.16 11.18 254.703 254.703 0 0 1 11.566 14.543Zm0 0" style="stroke:none;fill-rule:nonzero;fill-opacity:1;" fill="#ffc473" data-original="#ffc473"></path><path d="m470.84 116.73-66.168 36.711-59-106.351 30.726-17.05c38.34 20.46 70.864 50.401 94.442 86.69Zm0 0" style="stroke:none;fill-rule:nonzero;fill-opacity:1;" fill="#ffffff" data-original="#ffffff"></path><path d="m470.84 116.73-66.168 36.711-23.453-42.27 59.12-32.8a257.31 257.31 0 0 1 30.5 38.36Zm0 0" style="stroke:none;fill-rule:nonzero;fill-opacity:1;" fill="#fff5cb" data-original="#fff5cb"></path><path d="m355.95 380.531-83.071 45.52c-15.277 8.379-33.059 17.52-50.68 13.277-22.11-5.34-24.27-4-35.73 2.293L124.78 475.84a256.41 256.41 0 0 1-53.12-42.211 273.664 273.664 0 0 1-10.173-11.188l105.762-58.73c1.488-.813 3.191-1.031 4.75-.621l79.91 20.738c1.36.363 2.86.211 4.2-.367.18-.082.359-.18.538-.262l77.48-42.469c11.532-6.32 25.263-3.761 31.93 5.52.493.672.942 1.39 1.352 2.121 6.02 11 .88 25.39-11.46 32.16Zm0 0" style="stroke:none;fill-rule:nonzero;fill-opacity:1;" fill="#ffdba9" data-original="#ffdba9"></path><path d="M256.59 382.18c-.13.449-.29.87-.48 1.28-3.54 8.278-14.669 12.618-23.438 10.31 0 0-19.543-5.18-19.613-5.2l-40.668-10.82-100.743 55.871a275.774 275.774 0 0 1-10.16-11.18 254.703 254.703 0 0 1-11.566-14.543C103.059 378.41 162.73 345.29 163.82 344.7c7.14-3.918 14.63-1.039 20.77.57 3.93 1.051 58.62 15.442 58.62 15.442 4.31 1.14 8.15 3.93 10.72 7.5 2.922 4.07 4.23 9.16 2.66 13.969Zm0 0" style="stroke:none;fill-rule:nonzero;fill-opacity:1;" fill="#ffc473" data-original="#ffc473"></path><path d="m166.328 464.91-30.726 17.05c-38.34-20.46-70.864-50.401-94.442-86.69l66.168-36.711Zm0 0" style="stroke:none;fill-rule:nonzero;fill-opacity:1;" fill="#9331b2" data-original="#9331b2"></path><path d="m130.781 400.828-59.12 32.8a257.31 257.31 0 0 1-30.5-38.358l66.167-36.711Zm0 0" style="stroke:none;fill-rule:nonzero;fill-opacity:1;" fill="#681f7b" data-original="#681f7b"></path></g></svg>